<svg width="47" height="17" viewBox="0 0 47 17" fill="none" xmlns="http://www.w3.org/2000/svg">
<path d="M9.0211 16.8569C10.1771 16.8569 11.2101 16.6627 12.1203 16.2745C13.0452 15.8862 13.8254 15.3755 14.4612 14.7429C15.0968 14.0956 15.552 13.391 15.8264 12.6286L13.1824 11.3989C12.8644 12.2043 12.3445 12.8732 11.6219 13.4052C10.9139 13.9229 10.047 14.1819 9.0211 14.1819C8.00968 14.1819 7.12124 13.9446 6.35533 13.47C5.58965 12.9954 4.98986 12.3411 4.55643 11.5068C4.12299 10.6582 3.90639 9.67306 3.90639 8.55125C3.90639 7.42945 4.12299 6.45146 4.55643 5.61727C4.98986 4.76873 5.58965 4.11434 6.35533 3.6541C7.12124 3.17949 8.00968 2.94219 9.0211 2.94219C10.047 2.94219 10.9139 3.20825 11.6219 3.74038C12.3445 4.25816 12.8644 4.91975 13.1824 5.72514L15.8264 4.49546C15.552 3.73321 15.0968 3.03567 14.4612 2.40286C13.8254 1.75565 13.0452 1.23788 12.1203 0.849566C11.2101 0.461249 10.1771 0.26709 9.0211 0.26709C7.86535 0.26709 6.79611 0.475638 5.8136 0.89271C4.83108 1.29542 3.97844 1.8707 3.25612 2.61858C2.53358 3.35207 1.97004 4.2294 1.56552 5.25053C1.161 6.25728 0.958618 7.35752 0.958618 8.55125C0.958618 9.74498 1.161 10.8524 1.56552 11.8736C1.97004 12.8803 2.53358 13.7576 3.25612 14.5056C3.97844 15.2533 4.83108 15.836 5.8136 16.253C6.79611 16.6557 7.86535 16.8569 9.0211 16.8569Z" fill="#333333"/>
<path d="M17.9812 16.5981H20.8204V0.26709H17.9812V16.5981Z" fill="#333333"/>
<path d="M27.0179 16.8569C28.5495 16.8569 29.7776 16.3538 30.7023 15.347V16.5982H33.3898V8.78862C33.3898 7.96884 33.1803 7.24254 32.7614 6.60971C32.3422 5.97689 31.7644 5.4879 31.0274 5.14273C30.3051 4.78316 29.4598 4.60339 28.4917 4.60339C27.3068 4.60339 26.252 4.88384 25.3273 5.44476C24.4027 6.00567 23.7668 6.74636 23.4201 7.66681L25.7392 8.78862C25.9558 8.25648 26.2954 7.83221 26.7578 7.5158C27.2201 7.18501 27.7621 7.01961 28.3832 7.01961C29.0335 7.01961 29.5536 7.19221 29.9437 7.53738C30.3482 7.86816 30.5506 8.28524 30.5506 8.78862V9.17694L27.0395 9.73785C25.6525 9.96796 24.6266 10.4066 23.9619 11.0538C23.2974 11.701 22.9649 12.5136 22.9649 13.4915C22.9649 14.5271 23.3334 15.347 24.0704 15.9509C24.8072 16.555 25.7897 16.8569 27.0179 16.8569ZM25.9124 13.3837C25.9124 12.564 26.4689 12.0462 27.5813 11.8305L30.5506 11.3343V11.8089C30.5506 12.6143 30.2688 13.2974 29.7053 13.8584C29.1562 14.4193 28.4339 14.6998 27.5381 14.6998C27.0613 14.6998 26.671 14.5846 26.3677 14.3547C26.0643 14.11 25.9124 13.7864 25.9124 13.3837Z" fill="#333333"/>
<path d="M36.0139 16.5981H38.8531V10.0614C38.8531 9.16973 39.0988 8.47936 39.5901 7.99037C40.0958 7.48701 40.7458 7.23531 41.5406 7.23531H42.5592V4.73279H41.8658C41.1432 4.73279 40.5074 4.86224 39.9584 5.12113C39.4095 5.37999 38.9832 5.84742 38.6796 6.52338V4.86224H36.0139V16.5981Z" fill="#333333"/>
<path d="M44.1201 3.54625H46.9594V0.526001H44.1201V3.54625ZM44.1201 16.5981H46.9594V4.86224H44.1201V16.5981Z" fill="#333333"/>
</svg>
