<svg width="23" height="22" viewBox="0 0 23 22" fill="none" xmlns="http://www.w3.org/2000/svg">
<path d="M10.5253 4.21267C10.8464 3.22436 12.2446 3.22436 12.5657 4.21267L13.7131 7.74387C13.8567 8.18586 14.2686 8.48511 14.7333 8.48511H18.4462C19.4854 8.48511 19.9175 9.81488 19.0768 10.4257L16.073 12.6081C15.697 12.8813 15.5397 13.3654 15.6833 13.8074L16.8306 17.3386C17.1518 18.327 16.0206 19.1488 15.1799 18.538L12.1761 16.3556C11.8001 16.0824 11.291 16.0824 10.915 16.3556L7.91117 18.538C7.07046 19.1488 5.93929 18.327 6.26041 17.3386L7.40777 13.8074C7.55138 13.3654 7.39405 12.8813 7.01807 12.6081L4.01426 10.4257C3.17355 9.81488 3.60561 8.48511 4.64479 8.48511H8.35771C8.82245 8.48511 9.23433 8.18586 9.37794 7.74387L10.5253 4.21267Z" fill="url(#paint0_linear_40_3710)"/>
<defs>
<linearGradient id="paint0_linear_40_3710" x1="3.57001" y1="3.47144" x2="21.4221" y2="6.16962" gradientUnits="userSpaceOnUse">
<stop stop-color="#6DDCFF"/>
<stop offset="1" stop-color="#7F60F9"/>
</linearGradient>
</defs>
</svg>
