<?xml version="1.0" encoding="UTF-8"?> <svg xmlns="http://www.w3.org/2000/svg" width="1751" height="584" viewBox="0 0 1751 584" fill="none"> <path d="M1735.5 491C1542.73 594.432 1216.42 618.565 1488.11 411.696C1705.46 246.201 1397.27 357.278 1160.11 503.184C1017.49 571.69 1542.69 52.7186 1314.25 208.375C1015.84 411.7 1390.29 122.423 862.943 186.887C335.599 251.35 677.571 72.9639 438.971 101.443C200.372 129.923 15 16 15 16" stroke="url(#paint0_linear_401_398)" stroke-opacity="0.5" stroke-width="30" stroke-linecap="round"></path> <path d="M1735.5 491C1542.73 594.432 1216.42 618.565 1488.11 411.696C1705.46 246.201 1397.27 357.278 1160.11 503.184C1017.49 571.69 1542.69 52.7186 1314.25 208.375C1015.84 411.7 1390.29 122.423 862.943 186.887C335.599 251.35 677.571 72.9639 438.971 101.443C200.372 129.923 15 16 15 16" stroke="url(#paint1_linear_401_398)" stroke-opacity="0.5" stroke-width="30" stroke-linecap="round"></path> <path d="M1735.5 491C1542.73 594.432 1216.42 618.565 1488.11 411.696C1705.46 246.201 1397.27 357.278 1160.11 503.184C1017.49 571.69 1542.69 52.7186 1314.25 208.375C1015.84 411.7 1390.29 122.423 862.943 186.887C335.599 251.35 677.571 72.9639 438.971 101.443C200.372 129.923 15 16 15 16" stroke="url(#paint2_linear_401_398)" stroke-width="30" stroke-linecap="round"></path> <defs> <linearGradient id="paint0_linear_401_398" x1="901.989" y1="200.884" x2="1699.62" y2="821.324" gradientUnits="userSpaceOnUse"> <stop stop-color="#B8FF3A"></stop> <stop offset="0.186062" stop-color="#CBEF8C"></stop> <stop offset="0.44946" stop-color="#B8FF3A" stop-opacity="0.78"></stop> <stop offset="1" stop-color="#4BD09F" stop-opacity="0.44"></stop> </linearGradient> <linearGradient id="paint1_linear_401_398" x1="2095" y1="350" x2="2003" y2="813.54" gradientUnits="userSpaceOnUse"> <stop stop-color="white"></stop> <stop offset="1" stop-color="white" stop-opacity="0"></stop> </linearGradient> <linearGradient id="paint2_linear_401_398" x1="1766.5" y1="506.5" x2="1589.5" y2="582" gradientUnits="userSpaceOnUse"> <stop stop-color="white"></stop> <stop offset="1" stop-color="white" stop-opacity="0"></stop> </linearGradient> </defs> </svg> 