<svg width="41" height="41" viewBox="0 0 41 41" fill="none" xmlns="http://www.w3.org/2000/svg">
<path d="M39.9917 17.1306C40.2259 18.4523 40.3427 19.7915 40.3407 21.133C40.3407 27.1242 38.156 32.1898 34.3542 35.6187H34.3592C31.0344 38.629 26.4642 40.3717 21.0451 40.3717C15.7172 40.3717 10.6074 38.2971 6.84001 34.6042C3.07258 30.9113 0.956055 25.9026 0.956055 20.6801C0.956055 15.4575 3.07258 10.4488 6.84001 6.75592C10.6074 3.06301 15.7172 0.98836 21.0451 0.98836C26.0321 0.93111 30.8482 2.76758 34.4847 6.11312L28.7493 11.7351C26.6761 9.79787 23.9091 8.73702 21.0451 8.78135C15.8044 8.78135 11.3522 12.2471 9.76512 16.914C8.92365 19.3595 8.92365 22.008 9.76512 24.4535H9.77265C11.3672 29.113 15.8119 32.5788 21.0527 32.5788C23.7597 32.5788 26.085 31.8994 27.888 30.6982H27.8805C28.9274 30.0184 29.8229 29.1376 30.513 28.1092C31.2031 27.0808 31.6735 25.9259 31.8958 24.7144H21.0451V17.1331L39.9917 17.1306Z" fill="#333333"/>
</svg>
