<svg width="44" height="44" viewBox="0 0 44 44" fill="none" xmlns="http://www.w3.org/2000/svg">
<path d="M22.1325 15.3369C20.3333 15.3369 18.6078 16.0516 17.3356 17.3239C16.0634 18.5961 15.3486 20.3216 15.3486 22.1208C15.3486 23.92 16.0634 25.6454 17.3356 26.9177C18.6078 28.1899 20.3333 28.9046 22.1325 28.9046C23.9317 28.9046 25.6572 28.1899 26.9294 26.9177C28.2016 25.6454 28.9163 23.92 28.9163 22.1208C28.9163 20.3216 28.2016 18.5961 26.9294 17.3239C25.6572 16.0516 23.9317 15.3369 22.1325 15.3369Z" fill="#333333"/>
<path fill-rule="evenodd" clip-rule="evenodd" d="M11.226 3.54557C18.4817 2.74132 25.8039 2.74132 33.0596 3.54557C37.0234 3.98809 40.2191 7.10866 40.6846 11.0871C41.545 18.4443 41.545 25.8766 40.6846 33.2338C40.2191 37.2122 37.0234 40.3328 33.0617 40.7774C25.8053 41.5819 18.4823 41.5819 11.226 40.7774C7.26217 40.3328 4.06646 37.2122 3.60098 33.2359C2.74043 25.878 2.74043 18.445 3.60098 11.0871C4.06646 7.10866 7.26217 3.98809 11.226 3.54557ZM32.5795 9.63642C32.0259 9.63642 31.495 9.85634 31.1035 10.2478C30.7121 10.6392 30.4922 11.1702 30.4922 11.7238C30.4922 12.2774 30.7121 12.8083 31.1035 13.1997C31.495 13.5912 32.0259 13.8111 32.5795 13.8111C33.1331 13.8111 33.664 13.5912 34.0555 13.1997C34.4469 12.8083 34.6668 12.2774 34.6668 11.7238C34.6668 11.1702 34.4469 10.6392 34.0555 10.2478C33.664 9.85634 33.1331 9.63642 32.5795 9.63642ZM12.2279 22.1605C12.2279 19.5309 13.2725 17.009 15.1319 15.1496C16.9913 13.2902 19.5132 12.2456 22.1428 12.2456C24.7724 12.2456 27.2943 13.2902 29.1537 15.1496C31.0131 17.009 32.0577 19.5309 32.0577 22.1605C32.0577 24.79 31.0131 27.3119 29.1537 29.1713C27.2943 31.0307 24.7724 32.0753 22.1428 32.0753C19.5132 32.0753 16.9913 31.0307 15.1319 29.1713C13.2725 27.3119 12.2279 24.79 12.2279 22.1605Z" fill="#333333"/>
</svg>
