<svg width="45" height="46" viewBox="0 0 45 46" fill="none" xmlns="http://www.w3.org/2000/svg">
<mask id="path-1-outside-1_242_125" maskUnits="userSpaceOnUse" x="7.45032" y="8.59293" width="30" height="30" fill="black">
<rect fill="white" x="7.45032" y="8.59293" width="30" height="30"/>
<path fill-rule="evenodd" clip-rule="evenodd" d="M20.2908 9.68294C14.7306 10.5759 10.3575 14.4665 8.86721 19.8462C8.55195 20.9844 8.44975 21.865 8.45032 23.439C8.45107 25.9809 8.77746 27.3753 9.9182 29.7106C11.9367 33.8432 15.9 36.6135 20.6585 37.2177C27.0412 38.028 33.5197 33.7565 35.3588 27.5252C36.0137 25.3071 36.1445 21.6114 35.5679 21.6266C35.4642 21.6294 35.3533 21.9744 35.3215 22.3931C35.2643 23.1435 35.2525 23.1547 34.5201 23.1547C33.6962 23.1547 33.6635 23.0652 33.9324 21.5436C34.0586 20.8299 34.1014 20.789 34.6604 20.8455C35.1671 20.8967 35.326 20.7996 35.7412 20.1855C36.3331 19.3098 36.3461 19.0409 35.8232 18.4816L35.4188 18.0486L35.8992 17.865C36.5522 17.6155 36.6334 17.43 36.4886 16.5196C36.3423 15.5994 35.9988 15.194 35.366 15.194C34.901 15.194 34.753 14.9336 35.0965 14.7201C35.2002 14.6557 35.2851 14.4049 35.2851 14.1629C35.2851 13.3621 33.4806 12.3276 33.1167 12.9195C32.9212 13.2374 32.4568 13.1307 32.4568 12.7679C32.4568 12.2122 32.0584 11.9718 31.1369 11.9718C30.2155 11.9718 29.8171 12.2122 29.8171 12.7679C29.8171 13.1307 29.3527 13.2374 29.1571 12.9195C29.0008 12.6653 28.247 12.6782 27.987 12.9396C27.8346 13.0928 27.4308 13.009 26.488 12.628C25.7783 12.3414 24.5823 12.0167 23.8305 11.9068L22.4635 11.7068V10.9864C22.4635 10.3096 22.4984 10.266 23.0392 10.266C23.9999 10.266 26.258 10.8484 27.5288 11.4241C28.6793 11.9453 29.0629 11.9817 29.0629 11.5696C29.0629 11.3107 26.9401 10.3619 25.5509 10C24.1533 9.63593 21.5575 9.47956 20.2908 9.68294ZM21.8979 11.0241C21.8979 11.7501 21.8722 11.7823 21.2971 11.7823C19.1397 11.7823 15.8606 13.3153 13.9851 15.2004C12.0807 17.115 10.5976 20.3182 10.5876 22.5386C10.5849 23.1306 10.5551 23.1547 9.83052 23.1547C9.08159 23.1547 9.07631 23.1495 9.07631 22.4268C9.07631 22.0265 9.24337 21.0424 9.44738 20.2401C10.3873 16.5464 12.8758 13.4288 16.2449 11.7247C18.0041 10.835 19.8 10.3107 21.1908 10.2809C21.8926 10.2662 21.8979 10.2717 21.8979 11.0241ZM23.7745 12.5522C24.4437 12.6614 25.4553 12.9379 26.0223 13.1669C26.8621 13.5056 27.0597 13.6709 27.0868 14.0568C27.1051 14.3174 27.1845 14.68 27.2631 14.8623C27.3781 15.1292 27.3122 15.194 26.9254 15.194C26.2783 15.194 25.8575 15.8473 25.8575 16.8519C25.8575 17.5473 25.9269 17.6938 26.3288 17.8475C26.8476 18.0458 26.9418 18.321 26.5436 18.4745C26.0956 18.6474 26.0781 19.3009 26.5012 20.0551C26.8679 20.7088 26.9893 20.7858 27.657 20.7884C28.2021 20.7905 28.3871 20.8639 28.3441 21.0604C28.1953 21.7416 28.5083 22.1751 29.3596 22.4668C30.2119 22.7587 30.2308 22.756 30.6978 22.2866L31.1716 21.8102L31.6143 22.2904C31.9692 22.6753 32.1715 22.7477 32.634 22.6546C33.2014 22.5405 33.211 22.5513 33.211 23.3038C33.211 24.5076 32.7247 26.7551 32.2179 27.8947C29.9376 33.0202 24.0121 35.6817 18.7868 33.9275C14.3292 32.4311 11.157 28.0702 11.157 23.439C11.157 18.1286 15.1822 13.4523 20.5322 12.5469C21.8236 12.3283 22.4075 12.3293 23.7745 12.5522ZM31.8553 13.1439C31.929 13.7859 32.8871 14.0844 33.3571 13.6119C33.6222 13.3454 33.7022 13.3545 34.1939 13.7065C34.6966 14.0662 34.7172 14.1269 34.466 14.512C34.0948 15.0816 34.4826 15.8208 35.2219 15.9529C35.6596 16.0312 35.767 16.1574 35.8145 16.6491C35.8632 17.1531 35.8025 17.2596 35.4374 17.3117C35.0841 17.3619 34.9913 17.5077 34.9436 18.086C34.9018 18.5958 34.9687 18.8305 35.1793 18.9118C35.5525 19.0557 35.5526 19.3557 35.1797 19.891C34.9431 20.2306 34.8146 20.2748 34.5216 20.1171C33.9347 19.8013 33.1471 20.4168 33.2804 21.087C33.3701 21.5383 33.3059 21.6342 32.7915 21.8144C32.2179 22.0153 31.9036 21.8707 31.894 21.4014C31.8925 21.3233 31.6045 21.2593 31.2542 21.2593C30.823 21.2593 30.5338 21.3844 30.3586 21.6465C30.1338 21.9827 30.0237 22.0068 29.5207 21.8292C29.0317 21.6567 28.9533 21.5439 29.0174 21.1061C29.1273 20.3525 28.4802 19.793 27.8388 20.087C27.4142 20.2814 27.3429 20.2479 27.0757 19.7287C26.7983 19.1897 26.8038 19.137 27.1679 18.8333C27.6791 18.4074 27.4592 17.405 26.8347 17.313C26.4045 17.2497 26.3532 17.0865 26.5419 16.3786C26.6245 16.0687 26.7961 15.9521 27.169 15.9521C27.8216 15.9521 28.2353 15.1959 27.9134 14.5914C27.7432 14.2717 27.7779 14.1269 28.1033 13.7999C28.4474 13.4538 28.5545 13.433 28.8922 13.6449C29.4809 14.0145 30.3827 13.7575 30.3827 13.2203C30.3827 12.6409 30.5511 12.5126 31.2244 12.5789C31.6879 12.6244 31.808 12.7321 31.8553 13.1439ZM30.0839 14.8947C28.3026 15.6745 28.0247 18.006 29.5523 19.3544C30.6935 20.3616 32.6082 20.0559 33.4071 18.7386C34.7324 16.5539 32.4157 13.8742 30.0839 14.8947ZM32.4359 15.8688C33.5248 16.7897 33.3304 18.4294 32.0537 19.0932C30.1037 20.1067 28.2459 17.5024 29.8026 15.9376C30.5377 15.1985 31.6104 15.1705 32.4359 15.8688ZM20.9104 18.1442C19.887 18.7024 19.5002 20.3658 20.1406 21.4554C21.3053 23.4374 24.5499 22.5593 24.531 20.267C24.5272 19.8224 24.4154 19.2615 24.2825 19.0208C23.6942 17.9548 22.044 17.5259 20.9104 18.1442ZM22.8182 18.6262C23.4295 18.8405 23.9719 19.6163 23.9719 20.2765C23.9719 20.7685 23.2747 21.626 22.6945 21.8478C22.0031 22.112 21.0107 21.7276 20.6691 21.0633C20.1562 20.0663 20.3832 19.2062 21.2898 18.7117C21.9188 18.3686 22.0602 18.3606 22.8182 18.6262ZM20.3672 23.2155C19.3517 23.5972 18.3944 24.2379 17.8227 24.9183C17.0617 25.8245 16.4338 27.3169 16.4317 28.2248L16.4299 29.0304H22.1807H27.9315V28.2078C27.9315 27.1592 27.0191 25.2826 26.1262 24.4945C24.9875 23.4894 24.0121 23.0982 22.4635 23.0254C21.579 22.9839 20.7939 23.055 20.3672 23.2155ZM24.5029 24.1825C25.9131 24.906 26.9507 26.2794 27.2703 27.8458L27.3959 28.4618H22.1956C16.4212 28.4618 16.7907 28.5647 17.2885 27.0961C17.8229 25.5195 19.3364 24.1535 21.0494 23.7013C21.942 23.4657 23.5394 23.6884 24.5029 24.1825ZM10.7175 25.3344C11.5358 30.2887 15.3747 34.1271 20.3531 34.9688L21.8036 35.2141L21.8637 35.9417L21.9241 36.6692L20.6955 36.554C14.8426 36.0045 9.68062 30.8155 9.13401 24.932L9.01937 23.6969L9.74303 23.7576L10.4669 23.818L10.7175 25.3344ZM35.2851 24.4511C35.2851 24.8514 35.118 25.8355 34.914 26.6378C33.7244 31.3134 30.0141 35.0431 25.3629 36.2389C24.5648 36.444 23.5807 36.612 23.1763 36.612C22.4437 36.612 22.4411 36.6091 22.4994 35.9129L22.5578 35.2141L23.9995 34.9704C24.7923 34.8364 25.8797 34.5528 26.4158 34.3403C30.0039 32.9186 32.8103 29.5311 33.5174 25.7684C33.9185 23.6342 33.8706 23.7233 34.6193 23.7233C35.2657 23.7233 35.2851 23.7445 35.2851 24.4511Z"/>
</mask>
<path fill-rule="evenodd" clip-rule="evenodd" d="M20.2908 9.68294C14.7306 10.5759 10.3575 14.4665 8.86721 19.8462C8.55195 20.9844 8.44975 21.865 8.45032 23.439C8.45107 25.9809 8.77746 27.3753 9.9182 29.7106C11.9367 33.8432 15.9 36.6135 20.6585 37.2177C27.0412 38.028 33.5197 33.7565 35.3588 27.5252C36.0137 25.3071 36.1445 21.6114 35.5679 21.6266C35.4642 21.6294 35.3533 21.9744 35.3215 22.3931C35.2643 23.1435 35.2525 23.1547 34.5201 23.1547C33.6962 23.1547 33.6635 23.0652 33.9324 21.5436C34.0586 20.8299 34.1014 20.789 34.6604 20.8455C35.1671 20.8967 35.326 20.7996 35.7412 20.1855C36.3331 19.3098 36.3461 19.0409 35.8232 18.4816L35.4188 18.0486L35.8992 17.865C36.5522 17.6155 36.6334 17.43 36.4886 16.5196C36.3423 15.5994 35.9988 15.194 35.366 15.194C34.901 15.194 34.753 14.9336 35.0965 14.7201C35.2002 14.6557 35.2851 14.4049 35.2851 14.1629C35.2851 13.3621 33.4806 12.3276 33.1167 12.9195C32.9212 13.2374 32.4568 13.1307 32.4568 12.7679C32.4568 12.2122 32.0584 11.9718 31.1369 11.9718C30.2155 11.9718 29.8171 12.2122 29.8171 12.7679C29.8171 13.1307 29.3527 13.2374 29.1571 12.9195C29.0008 12.6653 28.247 12.6782 27.987 12.9396C27.8346 13.0928 27.4308 13.009 26.488 12.628C25.7783 12.3414 24.5823 12.0167 23.8305 11.9068L22.4635 11.7068V10.9864C22.4635 10.3096 22.4984 10.266 23.0392 10.266C23.9999 10.266 26.258 10.8484 27.5288 11.4241C28.6793 11.9453 29.0629 11.9817 29.0629 11.5696C29.0629 11.3107 26.9401 10.3619 25.5509 10C24.1533 9.63593 21.5575 9.47956 20.2908 9.68294ZM21.8979 11.0241C21.8979 11.7501 21.8722 11.7823 21.2971 11.7823C19.1397 11.7823 15.8606 13.3153 13.9851 15.2004C12.0807 17.115 10.5976 20.3182 10.5876 22.5386C10.5849 23.1306 10.5551 23.1547 9.83052 23.1547C9.08159 23.1547 9.07631 23.1495 9.07631 22.4268C9.07631 22.0265 9.24337 21.0424 9.44738 20.2401C10.3873 16.5464 12.8758 13.4288 16.2449 11.7247C18.0041 10.835 19.8 10.3107 21.1908 10.2809C21.8926 10.2662 21.8979 10.2717 21.8979 11.0241ZM23.7745 12.5522C24.4437 12.6614 25.4553 12.9379 26.0223 13.1669C26.8621 13.5056 27.0597 13.6709 27.0868 14.0568C27.1051 14.3174 27.1845 14.68 27.2631 14.8623C27.3781 15.1292 27.3122 15.194 26.9254 15.194C26.2783 15.194 25.8575 15.8473 25.8575 16.8519C25.8575 17.5473 25.9269 17.6938 26.3288 17.8475C26.8476 18.0458 26.9418 18.321 26.5436 18.4745C26.0956 18.6474 26.0781 19.3009 26.5012 20.0551C26.8679 20.7088 26.9893 20.7858 27.657 20.7884C28.2021 20.7905 28.3871 20.8639 28.3441 21.0604C28.1953 21.7416 28.5083 22.1751 29.3596 22.4668C30.2119 22.7587 30.2308 22.756 30.6978 22.2866L31.1716 21.8102L31.6143 22.2904C31.9692 22.6753 32.1715 22.7477 32.634 22.6546C33.2014 22.5405 33.211 22.5513 33.211 23.3038C33.211 24.5076 32.7247 26.7551 32.2179 27.8947C29.9376 33.0202 24.0121 35.6817 18.7868 33.9275C14.3292 32.4311 11.157 28.0702 11.157 23.439C11.157 18.1286 15.1822 13.4523 20.5322 12.5469C21.8236 12.3283 22.4075 12.3293 23.7745 12.5522ZM31.8553 13.1439C31.929 13.7859 32.8871 14.0844 33.3571 13.6119C33.6222 13.3454 33.7022 13.3545 34.1939 13.7065C34.6966 14.0662 34.7172 14.1269 34.466 14.512C34.0948 15.0816 34.4826 15.8208 35.2219 15.9529C35.6596 16.0312 35.767 16.1574 35.8145 16.6491C35.8632 17.1531 35.8025 17.2596 35.4374 17.3117C35.0841 17.3619 34.9913 17.5077 34.9436 18.086C34.9018 18.5958 34.9687 18.8305 35.1793 18.9118C35.5525 19.0557 35.5526 19.3557 35.1797 19.891C34.9431 20.2306 34.8146 20.2748 34.5216 20.1171C33.9347 19.8013 33.1471 20.4168 33.2804 21.087C33.3701 21.5383 33.3059 21.6342 32.7915 21.8144C32.2179 22.0153 31.9036 21.8707 31.894 21.4014C31.8925 21.3233 31.6045 21.2593 31.2542 21.2593C30.823 21.2593 30.5338 21.3844 30.3586 21.6465C30.1338 21.9827 30.0237 22.0068 29.5207 21.8292C29.0317 21.6567 28.9533 21.5439 29.0174 21.1061C29.1273 20.3525 28.4802 19.793 27.8388 20.087C27.4142 20.2814 27.3429 20.2479 27.0757 19.7287C26.7983 19.1897 26.8038 19.137 27.1679 18.8333C27.6791 18.4074 27.4592 17.405 26.8347 17.313C26.4045 17.2497 26.3532 17.0865 26.5419 16.3786C26.6245 16.0687 26.7961 15.9521 27.169 15.9521C27.8216 15.9521 28.2353 15.1959 27.9134 14.5914C27.7432 14.2717 27.7779 14.1269 28.1033 13.7999C28.4474 13.4538 28.5545 13.433 28.8922 13.6449C29.4809 14.0145 30.3827 13.7575 30.3827 13.2203C30.3827 12.6409 30.5511 12.5126 31.2244 12.5789C31.6879 12.6244 31.808 12.7321 31.8553 13.1439ZM30.0839 14.8947C28.3026 15.6745 28.0247 18.006 29.5523 19.3544C30.6935 20.3616 32.6082 20.0559 33.4071 18.7386C34.7324 16.5539 32.4157 13.8742 30.0839 14.8947ZM32.4359 15.8688C33.5248 16.7897 33.3304 18.4294 32.0537 19.0932C30.1037 20.1067 28.2459 17.5024 29.8026 15.9376C30.5377 15.1985 31.6104 15.1705 32.4359 15.8688ZM20.9104 18.1442C19.887 18.7024 19.5002 20.3658 20.1406 21.4554C21.3053 23.4374 24.5499 22.5593 24.531 20.267C24.5272 19.8224 24.4154 19.2615 24.2825 19.0208C23.6942 17.9548 22.044 17.5259 20.9104 18.1442ZM22.8182 18.6262C23.4295 18.8405 23.9719 19.6163 23.9719 20.2765C23.9719 20.7685 23.2747 21.626 22.6945 21.8478C22.0031 22.112 21.0107 21.7276 20.6691 21.0633C20.1562 20.0663 20.3832 19.2062 21.2898 18.7117C21.9188 18.3686 22.0602 18.3606 22.8182 18.6262ZM20.3672 23.2155C19.3517 23.5972 18.3944 24.2379 17.8227 24.9183C17.0617 25.8245 16.4338 27.3169 16.4317 28.2248L16.4299 29.0304H22.1807H27.9315V28.2078C27.9315 27.1592 27.0191 25.2826 26.1262 24.4945C24.9875 23.4894 24.0121 23.0982 22.4635 23.0254C21.579 22.9839 20.7939 23.055 20.3672 23.2155ZM24.5029 24.1825C25.9131 24.906 26.9507 26.2794 27.2703 27.8458L27.3959 28.4618H22.1956C16.4212 28.4618 16.7907 28.5647 17.2885 27.0961C17.8229 25.5195 19.3364 24.1535 21.0494 23.7013C21.942 23.4657 23.5394 23.6884 24.5029 24.1825ZM10.7175 25.3344C11.5358 30.2887 15.3747 34.1271 20.3531 34.9688L21.8036 35.2141L21.8637 35.9417L21.9241 36.6692L20.6955 36.554C14.8426 36.0045 9.68062 30.8155 9.13401 24.932L9.01937 23.6969L9.74303 23.7576L10.4669 23.818L10.7175 25.3344ZM35.2851 24.4511C35.2851 24.8514 35.118 25.8355 34.914 26.6378C33.7244 31.3134 30.0141 35.0431 25.3629 36.2389C24.5648 36.444 23.5807 36.612 23.1763 36.612C22.4437 36.612 22.4411 36.6091 22.4994 35.9129L22.5578 35.2141L23.9995 34.9704C24.7923 34.8364 25.8797 34.5528 26.4158 34.3403C30.0039 32.9186 32.8103 29.5311 33.5174 25.7684C33.9185 23.6342 33.8706 23.7233 34.6193 23.7233C35.2657 23.7233 35.2851 23.7445 35.2851 24.4511Z" fill="white"/>
<path fill-rule="evenodd" clip-rule="evenodd" d="M20.2908 9.68294C14.7306 10.5759 10.3575 14.4665 8.86721 19.8462C8.55195 20.9844 8.44975 21.865 8.45032 23.439C8.45107 25.9809 8.77746 27.3753 9.9182 29.7106C11.9367 33.8432 15.9 36.6135 20.6585 37.2177C27.0412 38.028 33.5197 33.7565 35.3588 27.5252C36.0137 25.3071 36.1445 21.6114 35.5679 21.6266C35.4642 21.6294 35.3533 21.9744 35.3215 22.3931C35.2643 23.1435 35.2525 23.1547 34.5201 23.1547C33.6962 23.1547 33.6635 23.0652 33.9324 21.5436C34.0586 20.8299 34.1014 20.789 34.6604 20.8455C35.1671 20.8967 35.326 20.7996 35.7412 20.1855C36.3331 19.3098 36.3461 19.0409 35.8232 18.4816L35.4188 18.0486L35.8992 17.865C36.5522 17.6155 36.6334 17.43 36.4886 16.5196C36.3423 15.5994 35.9988 15.194 35.366 15.194C34.901 15.194 34.753 14.9336 35.0965 14.7201C35.2002 14.6557 35.2851 14.4049 35.2851 14.1629C35.2851 13.3621 33.4806 12.3276 33.1167 12.9195C32.9212 13.2374 32.4568 13.1307 32.4568 12.7679C32.4568 12.2122 32.0584 11.9718 31.1369 11.9718C30.2155 11.9718 29.8171 12.2122 29.8171 12.7679C29.8171 13.1307 29.3527 13.2374 29.1571 12.9195C29.0008 12.6653 28.247 12.6782 27.987 12.9396C27.8346 13.0928 27.4308 13.009 26.488 12.628C25.7783 12.3414 24.5823 12.0167 23.8305 11.9068L22.4635 11.7068V10.9864C22.4635 10.3096 22.4984 10.266 23.0392 10.266C23.9999 10.266 26.258 10.8484 27.5288 11.4241C28.6793 11.9453 29.0629 11.9817 29.0629 11.5696C29.0629 11.3107 26.9401 10.3619 25.5509 10C24.1533 9.63593 21.5575 9.47956 20.2908 9.68294ZM21.8979 11.0241C21.8979 11.7501 21.8722 11.7823 21.2971 11.7823C19.1397 11.7823 15.8606 13.3153 13.9851 15.2004C12.0807 17.115 10.5976 20.3182 10.5876 22.5386C10.5849 23.1306 10.5551 23.1547 9.83052 23.1547C9.08159 23.1547 9.07631 23.1495 9.07631 22.4268C9.07631 22.0265 9.24337 21.0424 9.44738 20.2401C10.3873 16.5464 12.8758 13.4288 16.2449 11.7247C18.0041 10.835 19.8 10.3107 21.1908 10.2809C21.8926 10.2662 21.8979 10.2717 21.8979 11.0241ZM23.7745 12.5522C24.4437 12.6614 25.4553 12.9379 26.0223 13.1669C26.8621 13.5056 27.0597 13.6709 27.0868 14.0568C27.1051 14.3174 27.1845 14.68 27.2631 14.8623C27.3781 15.1292 27.3122 15.194 26.9254 15.194C26.2783 15.194 25.8575 15.8473 25.8575 16.8519C25.8575 17.5473 25.9269 17.6938 26.3288 17.8475C26.8476 18.0458 26.9418 18.321 26.5436 18.4745C26.0956 18.6474 26.0781 19.3009 26.5012 20.0551C26.8679 20.7088 26.9893 20.7858 27.657 20.7884C28.2021 20.7905 28.3871 20.8639 28.3441 21.0604C28.1953 21.7416 28.5083 22.1751 29.3596 22.4668C30.2119 22.7587 30.2308 22.756 30.6978 22.2866L31.1716 21.8102L31.6143 22.2904C31.9692 22.6753 32.1715 22.7477 32.634 22.6546C33.2014 22.5405 33.211 22.5513 33.211 23.3038C33.211 24.5076 32.7247 26.7551 32.2179 27.8947C29.9376 33.0202 24.0121 35.6817 18.7868 33.9275C14.3292 32.4311 11.157 28.0702 11.157 23.439C11.157 18.1286 15.1822 13.4523 20.5322 12.5469C21.8236 12.3283 22.4075 12.3293 23.7745 12.5522ZM31.8553 13.1439C31.929 13.7859 32.8871 14.0844 33.3571 13.6119C33.6222 13.3454 33.7022 13.3545 34.1939 13.7065C34.6966 14.0662 34.7172 14.1269 34.466 14.512C34.0948 15.0816 34.4826 15.8208 35.2219 15.9529C35.6596 16.0312 35.767 16.1574 35.8145 16.6491C35.8632 17.1531 35.8025 17.2596 35.4374 17.3117C35.0841 17.3619 34.9913 17.5077 34.9436 18.086C34.9018 18.5958 34.9687 18.8305 35.1793 18.9118C35.5525 19.0557 35.5526 19.3557 35.1797 19.891C34.9431 20.2306 34.8146 20.2748 34.5216 20.1171C33.9347 19.8013 33.1471 20.4168 33.2804 21.087C33.3701 21.5383 33.3059 21.6342 32.7915 21.8144C32.2179 22.0153 31.9036 21.8707 31.894 21.4014C31.8925 21.3233 31.6045 21.2593 31.2542 21.2593C30.823 21.2593 30.5338 21.3844 30.3586 21.6465C30.1338 21.9827 30.0237 22.0068 29.5207 21.8292C29.0317 21.6567 28.9533 21.5439 29.0174 21.1061C29.1273 20.3525 28.4802 19.793 27.8388 20.087C27.4142 20.2814 27.3429 20.2479 27.0757 19.7287C26.7983 19.1897 26.8038 19.137 27.1679 18.8333C27.6791 18.4074 27.4592 17.405 26.8347 17.313C26.4045 17.2497 26.3532 17.0865 26.5419 16.3786C26.6245 16.0687 26.7961 15.9521 27.169 15.9521C27.8216 15.9521 28.2353 15.1959 27.9134 14.5914C27.7432 14.2717 27.7779 14.1269 28.1033 13.7999C28.4474 13.4538 28.5545 13.433 28.8922 13.6449C29.4809 14.0145 30.3827 13.7575 30.3827 13.2203C30.3827 12.6409 30.5511 12.5126 31.2244 12.5789C31.6879 12.6244 31.808 12.7321 31.8553 13.1439ZM30.0839 14.8947C28.3026 15.6745 28.0247 18.006 29.5523 19.3544C30.6935 20.3616 32.6082 20.0559 33.4071 18.7386C34.7324 16.5539 32.4157 13.8742 30.0839 14.8947ZM32.4359 15.8688C33.5248 16.7897 33.3304 18.4294 32.0537 19.0932C30.1037 20.1067 28.2459 17.5024 29.8026 15.9376C30.5377 15.1985 31.6104 15.1705 32.4359 15.8688ZM20.9104 18.1442C19.887 18.7024 19.5002 20.3658 20.1406 21.4554C21.3053 23.4374 24.5499 22.5593 24.531 20.267C24.5272 19.8224 24.4154 19.2615 24.2825 19.0208C23.6942 17.9548 22.044 17.5259 20.9104 18.1442ZM22.8182 18.6262C23.4295 18.8405 23.9719 19.6163 23.9719 20.2765C23.9719 20.7685 23.2747 21.626 22.6945 21.8478C22.0031 22.112 21.0107 21.7276 20.6691 21.0633C20.1562 20.0663 20.3832 19.2062 21.2898 18.7117C21.9188 18.3686 22.0602 18.3606 22.8182 18.6262ZM20.3672 23.2155C19.3517 23.5972 18.3944 24.2379 17.8227 24.9183C17.0617 25.8245 16.4338 27.3169 16.4317 28.2248L16.4299 29.0304H22.1807H27.9315V28.2078C27.9315 27.1592 27.0191 25.2826 26.1262 24.4945C24.9875 23.4894 24.0121 23.0982 22.4635 23.0254C21.579 22.9839 20.7939 23.055 20.3672 23.2155ZM24.5029 24.1825C25.9131 24.906 26.9507 26.2794 27.2703 27.8458L27.3959 28.4618H22.1956C16.4212 28.4618 16.7907 28.5647 17.2885 27.0961C17.8229 25.5195 19.3364 24.1535 21.0494 23.7013C21.942 23.4657 23.5394 23.6884 24.5029 24.1825ZM10.7175 25.3344C11.5358 30.2887 15.3747 34.1271 20.3531 34.9688L21.8036 35.2141L21.8637 35.9417L21.9241 36.6692L20.6955 36.554C14.8426 36.0045 9.68062 30.8155 9.13401 24.932L9.01937 23.6969L9.74303 23.7576L10.4669 23.818L10.7175 25.3344ZM35.2851 24.4511C35.2851 24.8514 35.118 25.8355 34.914 26.6378C33.7244 31.3134 30.0141 35.0431 25.3629 36.2389C24.5648 36.444 23.5807 36.612 23.1763 36.612C22.4437 36.612 22.4411 36.6091 22.4994 35.9129L22.5578 35.2141L23.9995 34.9704C24.7923 34.8364 25.8797 34.5528 26.4158 34.3403C30.0039 32.9186 32.8103 29.5311 33.5174 25.7684C33.9185 23.6342 33.8706 23.7233 34.6193 23.7233C35.2657 23.7233 35.2851 23.7445 35.2851 24.4511Z" fill="url(#paint0_linear_242_125)"/>
<path fill-rule="evenodd" clip-rule="evenodd" d="M20.2908 9.68294C14.7306 10.5759 10.3575 14.4665 8.86721 19.8462C8.55195 20.9844 8.44975 21.865 8.45032 23.439C8.45107 25.9809 8.77746 27.3753 9.9182 29.7106C11.9367 33.8432 15.9 36.6135 20.6585 37.2177C27.0412 38.028 33.5197 33.7565 35.3588 27.5252C36.0137 25.3071 36.1445 21.6114 35.5679 21.6266C35.4642 21.6294 35.3533 21.9744 35.3215 22.3931C35.2643 23.1435 35.2525 23.1547 34.5201 23.1547C33.6962 23.1547 33.6635 23.0652 33.9324 21.5436C34.0586 20.8299 34.1014 20.789 34.6604 20.8455C35.1671 20.8967 35.326 20.7996 35.7412 20.1855C36.3331 19.3098 36.3461 19.0409 35.8232 18.4816L35.4188 18.0486L35.8992 17.865C36.5522 17.6155 36.6334 17.43 36.4886 16.5196C36.3423 15.5994 35.9988 15.194 35.366 15.194C34.901 15.194 34.753 14.9336 35.0965 14.7201C35.2002 14.6557 35.2851 14.4049 35.2851 14.1629C35.2851 13.3621 33.4806 12.3276 33.1167 12.9195C32.9212 13.2374 32.4568 13.1307 32.4568 12.7679C32.4568 12.2122 32.0584 11.9718 31.1369 11.9718C30.2155 11.9718 29.8171 12.2122 29.8171 12.7679C29.8171 13.1307 29.3527 13.2374 29.1571 12.9195C29.0008 12.6653 28.247 12.6782 27.987 12.9396C27.8346 13.0928 27.4308 13.009 26.488 12.628C25.7783 12.3414 24.5823 12.0167 23.8305 11.9068L22.4635 11.7068V10.9864C22.4635 10.3096 22.4984 10.266 23.0392 10.266C23.9999 10.266 26.258 10.8484 27.5288 11.4241C28.6793 11.9453 29.0629 11.9817 29.0629 11.5696C29.0629 11.3107 26.9401 10.3619 25.5509 10C24.1533 9.63593 21.5575 9.47956 20.2908 9.68294ZM21.8979 11.0241C21.8979 11.7501 21.8722 11.7823 21.2971 11.7823C19.1397 11.7823 15.8606 13.3153 13.9851 15.2004C12.0807 17.115 10.5976 20.3182 10.5876 22.5386C10.5849 23.1306 10.5551 23.1547 9.83052 23.1547C9.08159 23.1547 9.07631 23.1495 9.07631 22.4268C9.07631 22.0265 9.24337 21.0424 9.44738 20.2401C10.3873 16.5464 12.8758 13.4288 16.2449 11.7247C18.0041 10.835 19.8 10.3107 21.1908 10.2809C21.8926 10.2662 21.8979 10.2717 21.8979 11.0241ZM23.7745 12.5522C24.4437 12.6614 25.4553 12.9379 26.0223 13.1669C26.8621 13.5056 27.0597 13.6709 27.0868 14.0568C27.1051 14.3174 27.1845 14.68 27.2631 14.8623C27.3781 15.1292 27.3122 15.194 26.9254 15.194C26.2783 15.194 25.8575 15.8473 25.8575 16.8519C25.8575 17.5473 25.9269 17.6938 26.3288 17.8475C26.8476 18.0458 26.9418 18.321 26.5436 18.4745C26.0956 18.6474 26.0781 19.3009 26.5012 20.0551C26.8679 20.7088 26.9893 20.7858 27.657 20.7884C28.2021 20.7905 28.3871 20.8639 28.3441 21.0604C28.1953 21.7416 28.5083 22.1751 29.3596 22.4668C30.2119 22.7587 30.2308 22.756 30.6978 22.2866L31.1716 21.8102L31.6143 22.2904C31.9692 22.6753 32.1715 22.7477 32.634 22.6546C33.2014 22.5405 33.211 22.5513 33.211 23.3038C33.211 24.5076 32.7247 26.7551 32.2179 27.8947C29.9376 33.0202 24.0121 35.6817 18.7868 33.9275C14.3292 32.4311 11.157 28.0702 11.157 23.439C11.157 18.1286 15.1822 13.4523 20.5322 12.5469C21.8236 12.3283 22.4075 12.3293 23.7745 12.5522ZM31.8553 13.1439C31.929 13.7859 32.8871 14.0844 33.3571 13.6119C33.6222 13.3454 33.7022 13.3545 34.1939 13.7065C34.6966 14.0662 34.7172 14.1269 34.466 14.512C34.0948 15.0816 34.4826 15.8208 35.2219 15.9529C35.6596 16.0312 35.767 16.1574 35.8145 16.6491C35.8632 17.1531 35.8025 17.2596 35.4374 17.3117C35.0841 17.3619 34.9913 17.5077 34.9436 18.086C34.9018 18.5958 34.9687 18.8305 35.1793 18.9118C35.5525 19.0557 35.5526 19.3557 35.1797 19.891C34.9431 20.2306 34.8146 20.2748 34.5216 20.1171C33.9347 19.8013 33.1471 20.4168 33.2804 21.087C33.3701 21.5383 33.3059 21.6342 32.7915 21.8144C32.2179 22.0153 31.9036 21.8707 31.894 21.4014C31.8925 21.3233 31.6045 21.2593 31.2542 21.2593C30.823 21.2593 30.5338 21.3844 30.3586 21.6465C30.1338 21.9827 30.0237 22.0068 29.5207 21.8292C29.0317 21.6567 28.9533 21.5439 29.0174 21.1061C29.1273 20.3525 28.4802 19.793 27.8388 20.087C27.4142 20.2814 27.3429 20.2479 27.0757 19.7287C26.7983 19.1897 26.8038 19.137 27.1679 18.8333C27.6791 18.4074 27.4592 17.405 26.8347 17.313C26.4045 17.2497 26.3532 17.0865 26.5419 16.3786C26.6245 16.0687 26.7961 15.9521 27.169 15.9521C27.8216 15.9521 28.2353 15.1959 27.9134 14.5914C27.7432 14.2717 27.7779 14.1269 28.1033 13.7999C28.4474 13.4538 28.5545 13.433 28.8922 13.6449C29.4809 14.0145 30.3827 13.7575 30.3827 13.2203C30.3827 12.6409 30.5511 12.5126 31.2244 12.5789C31.6879 12.6244 31.808 12.7321 31.8553 13.1439ZM30.0839 14.8947C28.3026 15.6745 28.0247 18.006 29.5523 19.3544C30.6935 20.3616 32.6082 20.0559 33.4071 18.7386C34.7324 16.5539 32.4157 13.8742 30.0839 14.8947ZM32.4359 15.8688C33.5248 16.7897 33.3304 18.4294 32.0537 19.0932C30.1037 20.1067 28.2459 17.5024 29.8026 15.9376C30.5377 15.1985 31.6104 15.1705 32.4359 15.8688ZM20.9104 18.1442C19.887 18.7024 19.5002 20.3658 20.1406 21.4554C21.3053 23.4374 24.5499 22.5593 24.531 20.267C24.5272 19.8224 24.4154 19.2615 24.2825 19.0208C23.6942 17.9548 22.044 17.5259 20.9104 18.1442ZM22.8182 18.6262C23.4295 18.8405 23.9719 19.6163 23.9719 20.2765C23.9719 20.7685 23.2747 21.626 22.6945 21.8478C22.0031 22.112 21.0107 21.7276 20.6691 21.0633C20.1562 20.0663 20.3832 19.2062 21.2898 18.7117C21.9188 18.3686 22.0602 18.3606 22.8182 18.6262ZM20.3672 23.2155C19.3517 23.5972 18.3944 24.2379 17.8227 24.9183C17.0617 25.8245 16.4338 27.3169 16.4317 28.2248L16.4299 29.0304H22.1807H27.9315V28.2078C27.9315 27.1592 27.0191 25.2826 26.1262 24.4945C24.9875 23.4894 24.0121 23.0982 22.4635 23.0254C21.579 22.9839 20.7939 23.055 20.3672 23.2155ZM24.5029 24.1825C25.9131 24.906 26.9507 26.2794 27.2703 27.8458L27.3959 28.4618H22.1956C16.4212 28.4618 16.7907 28.5647 17.2885 27.0961C17.8229 25.5195 19.3364 24.1535 21.0494 23.7013C21.942 23.4657 23.5394 23.6884 24.5029 24.1825ZM10.7175 25.3344C11.5358 30.2887 15.3747 34.1271 20.3531 34.9688L21.8036 35.2141L21.8637 35.9417L21.9241 36.6692L20.6955 36.554C14.8426 36.0045 9.68062 30.8155 9.13401 24.932L9.01937 23.6969L9.74303 23.7576L10.4669 23.818L10.7175 25.3344ZM35.2851 24.4511C35.2851 24.8514 35.118 25.8355 34.914 26.6378C33.7244 31.3134 30.0141 35.0431 25.3629 36.2389C24.5648 36.444 23.5807 36.612 23.1763 36.612C22.4437 36.612 22.4411 36.6091 22.4994 35.9129L22.5578 35.2141L23.9995 34.9704C24.7923 34.8364 25.8797 34.5528 26.4158 34.3403C30.0039 32.9186 32.8103 29.5311 33.5174 25.7684C33.9185 23.6342 33.8706 23.7233 34.6193 23.7233C35.2657 23.7233 35.2851 23.7445 35.2851 24.4511Z" stroke="url(#paint1_linear_242_125)" stroke-width="0.8" mask="url(#path-1-outside-1_242_125)"/>
<defs>
<linearGradient id="paint0_linear_242_125" x1="8.45032" y1="23.4546" x2="36.5497" y2="23.4546" gradientUnits="userSpaceOnUse">
<stop stop-color="#690DFF"/>
<stop offset="1" stop-color="#FF00F5"/>
</linearGradient>
<linearGradient id="paint1_linear_242_125" x1="8.45032" y1="23.4546" x2="36.5497" y2="23.4546" gradientUnits="userSpaceOnUse">
<stop stop-color="#690DFF"/>
<stop offset="1" stop-color="#FF00F5"/>
</linearGradient>
</defs>
</svg>
